<svg width="48" height="48" viewBox="0 0 48 48" xmlns="http://www.w3.org/2000/svg">
  <rect width="48" height="48" rx="12" fill="#0E1622" />
  <circle cx="24" cy="24" r="14" fill="#3E8FD0" />
  <path d="M14 20c3 1 5-1 8 1s4 3 3 5-4 1-4 4-4 1-6-1-1-5-3-6-1-5 5-6Z" fill="#86C440" />
  <path d="M31 27c2-1 4 1 4 3s-2 3-4 2-1-4 0-5Z" fill="#86C440" />
  <g stroke="#ffffff" stroke-opacity="0.5" stroke-width="1" fill="none">
    <line x1="10" y1="24" x2="38" y2="24" />
    <ellipse cx="24" cy="24" rx="6" ry="14" />
  </g>
</svg>
